<svg xmlns="http://www.w3.org/2000/svg" xmlns:xlink="http://www.w3.org/1999/xlink" viewBox="0 0 80 80" fill="#FFFF">
  <path d="M60.814453 6C59.922453 6.2 59.082047 6.3800313 58.248047 6.5820312C58.153047 6.6060313 58.016625 6.7430781 58.015625 6.8300781C57.997625 7.6980781 58.005859 8.564 58.005859 9.5C58.936859 9.307 59.789625 9.1332656 60.640625 8.9472656C60.709625 8.9322656 60.807594 8.8315312 60.808594 8.7695312C60.818594 7.8525313 60.814453 6.937 60.814453 6 z M 57.302734 6.7890625C56.672734 6.9150625 56.067891 7.0332031 55.462891 7.1582031C54.500891 7.3582031 54.5 7.3607031 54.5 8.3457031L54.5 10.160156C55.477 9.9781562 56.385734 9.810625 57.302734 9.640625C57.301734 8.652625 57.302734 7.7330625 57.302734 6.7890625 z M 53.826172 7.4902344C52.902172 7.6502344 52.02825 7.7998906 51.15625 7.9628906C51.09825 7.9728906 51.023437 8.0930625 51.023438 8.1640625C51.014437 9.0040625 51.017578 9.846375 51.017578 10.734375C51.911578 10.591375 52.736641 10.464359 53.556641 10.318359C53.656641 10.299359 53.813453 10.175656 53.814453 10.097656C53.833453 9.2446563 53.826172 8.3912344 53.826172 7.4902344 z M 46.771484 8.6386719C45.820484 8.7626719 44.896375 8.8839062 43.984375 9.0039062L43.984375 11.662109C44.933375 11.550109 45.852484 11.440031 46.771484 11.332031L46.771484 8.6386719 z M 64.269531 8.8027344C63.400531 8.9967344 62.548219 9.1848125 61.699219 9.3828125C61.630219 9.3988125 61.53225 9.4927344 61.53125 9.5527344C61.52125 10.364734 61.525391 11.174672 61.525391 12.013672C61.524391 12.014672 61.525391 12.017578 61.525391 12.017578C62.471391 11.820578 63.364484 11.634313 64.271484 11.445312C64.270484 10.573313 64.269531 9.7197344 64.269531 8.8027344 z M 43.271484 9.0859375C42.283484 9.1909375 41.354734 9.2896719 40.427734 9.3886719L40.427734 12.013672C41.331734 11.927672 42.211797 11.848859 43.091797 11.755859C43.156797 11.749859 43.263672 11.646937 43.263672 11.585938C43.275672 10.763938 43.271484 9.9419375 43.271484 9.0859375 z M 39.689453 9.4550781C38.725453 9.5360781 37.807672 9.6153594 36.888672 9.6933594L36.888672 12.291016C37.833672 12.220016 38.752453 12.151078 39.689453 12.080078L39.689453 9.4550781 z M 36.142578 9.7480469C35.200578 9.8000469 34.288844 9.8503437 33.339844 9.9023438L33.339844 12.498047C34.300844 12.443047 35.221578 12.390891 36.142578 12.337891L36.142578 9.7480469 z M 22.660156 10.083984L22.660156 12.623047L25.462891 12.623047L25.462891 10.083984L22.660156 10.083984 z M 26.238281 10.095703L26.238281 12.626953L29.033203 12.626953L29.033203 10.095703L26.238281 10.095703 z M 57.304688 10.283203C56.437688 10.440203 55.587187 10.587953 54.742188 10.751953C54.653188 10.767953 54.513719 10.879219 54.511719 10.949219C54.495719 11.706219 54.501953 12.463578 54.501953 13.267578C55.471953 13.106578 56.381687 12.954781 57.304688 12.800781C57.303688 11.943781 57.304687 11.121203 57.304688 10.283203 z M 53.810547 10.949219C50.520547 11.399219 47.249219 11.860547 43.949219 12.310547L43.949219 18.199219C41.879219 18.289219 39.839297 18.380703 37.779297 18.470703L37.779297 16.119141C38.659297 16.069141 39.530625 16.030469 40.390625 15.980469L40.390625 12.660156C36.830625 12.860156 33.309766 13.050234 29.759766 13.240234L29.759766 18.900391L22.669922 18.900391L22.669922 21.800781L25.419922 21.800781L25.419922 24.039062L22.669922 24.039062L22.669922 26.890625L26.220703 26.890625L26.220703 36.050781L28.929688 36.050781L28.929688 38.269531L26.230469 38.269531L26.230469 41.759766L28.939453 41.759766L28.939453 43.980469L26.189453 43.980469L26.189453 53.119141L22.669922 53.119141L22.669922 58.880859L25.410156 58.880859L25.410156 61.099609L29.789062 61.099609L29.789062 66.779297C32.189062 66.889297 34.539219 66.989609 36.949219 67.099609L36.949219 64.910156C37.899219 64.990156 38.779219 65.070391 39.699219 65.150391L39.699219 61.509766C41.149219 61.619766 42.540703 61.720078 43.970703 61.830078L43.970703 67.679688C47.270703 68.139687 50.539844 68.590781 53.839844 69.050781L53.839844 62.900391C54.429844 62.950391 54.950469 62.979531 55.480469 63.019531C56.104469 63.064531 56.754156 63.09375 57.410156 63.09375C58.658156 63.09375 59.929844 62.987688 61.089844 62.679688C64.359844 61.809688 66.580703 59.880078 67.470703 56.580078C68.030703 54.540078 68.100625 52.459141 67.890625 50.369141C67.720625 48.649141 67.260859 47.02 66.380859 45.5C66.210859 45.21 65.800547 44.969375 65.560547 44.859375C65.400547 44.789375 63.990234 44.750469 63.490234 44.730469C62.850234 44.700469 62.210781 44.670625 61.550781 44.640625C61.550781 43.690625 61.530547 42.779141 61.560547 41.869141C61.560547 41.589141 61.470937 41.450859 61.210938 41.380859C60.100938 41.060859 59.000859 40.700156 57.880859 40.410156C57.240859 40.240156 56.369219 40.12 55.699219 40L55.699219 39.089844C55.699219 38.039844 55.700703 38.039453 56.720703 37.689453C58.480703 37.089453 60.275625 36.476406 61.765625 35.316406C63.435625 34.026406 64.635703 32.386016 65.345703 30.416016C65.985703 28.626016 66.03625 26.76625 65.90625 24.90625C65.79625 23.46625 65.475156 22.086641 64.785156 20.806641C64.255156 19.796641 63.495625 18.98625 62.515625 18.40625C60.721625 17.32325 58.878953 16.933594 56.876953 16.933594C56.568953 16.933594 56.255453 16.942937 55.939453 16.960938C55.239453 17.000937 54.549844 17.039844 53.839844 17.089844C53.829844 16.849844 53.820547 16.660937 53.810547 16.460938C52.880547 16.570937 51.989844 16.679063 51.089844 16.789062L51.089844 14.419922C52.009844 14.289922 52.910547 14.159531 53.810547 14.019531L53.810547 10.949219 z M 64.271484 12.117188C63.347484 12.305188 62.444922 12.490828 61.544922 12.673828L61.544922 15.265625C62.477922 15.092625 63.380484 14.925766 64.271484 14.759766L64.271484 12.117188 z M 60.804688 12.810547C59.846688 12.986547 58.930109 13.156312 58.037109 13.320312L58.037109 15.847656C58.983109 15.690656 59.891687 15.541625 60.804688 15.390625L60.804688 12.810547 z M 26.224609 13.257812L26.224609 15.460938L29.023438 15.460938L29.023438 13.257812L26.224609 13.257812 z M 57.292969 13.443359C56.347969 13.595359 55.437625 13.743578 54.515625 13.892578L54.515625 13.894531L54.515625 16.371094C55.473625 16.231094 56.385969 16.095891 57.292969 15.962891L57.292969 13.445312L57.292969 13.443359 z M 49.089844 13.621094L49.089844 19.048828C49.089844 19.048828 51.89525 18.706078 51.90625 18.705078L51.927734 19.228516L53.980469 19.083984C54.681469 19.034984 55.363781 18.994078 56.050781 18.955078C56.329781 18.940078 56.603953 18.931641 56.876953 18.931641C58.705953 18.931641 60.125047 19.297953 61.498047 20.126953C62.146448 20.510279 62.637706 21.027376 63.009766 21.724609C62.434047 21.808444 61.850515 21.893692 61.294922 21.974609L61.294922 24.583984C62.15886 24.478809 62.991578 24.376823 63.822266 24.275391C63.859227 24.524945 63.89179 24.778074 63.912109 25.044922C64.005567 26.384259 63.961635 27.464712 63.794922 28.417969C62.946694 28.496238 62.120289 28.572935 61.283203 28.650391L61.283203 31.255859C61.796834 31.222289 62.289184 31.189195 62.789062 31.15625C62.220105 32.140957 61.477368 33.011336 60.539062 33.736328C59.311062 34.692328 57.740266 35.228875 56.072266 35.796875C54.255266 36.419875 53.701172 37.188891 53.701172 39.087891L53.701172 41.673828C53.701172 41.673828 55.745984 42.037266 55.958984 42.072266C56.443984 42.152266 56.993906 42.244656 57.378906 42.347656C58.054906 42.522656 59.506922 42.961656 59.544922 42.972656C59.544922 43.265656 59.544875 43.555797 59.546875 43.841797L59.550781 44.640625L59.550781 46.552734C59.550781 46.552734 64.442594 46.766109 64.808594 46.787109C65.402594 47.903109 65.759391 49.144312 65.900391 50.570312C66.107391 52.626312 65.989062 54.418594 65.539062 56.058594C64.872062 58.533594 63.295125 60.023094 60.578125 60.746094C59.710125 60.976094 58.645109 61.09375 57.412109 61.09375C56.856109 61.09375 56.272812 61.071391 55.632812 61.025391L51.841797 60.722656L51.841797 66.753906L45.970703 65.939453L45.970703 59.978516L37.699219 59.353516L37.699219 62.966797C37.59176 62.957282 36.886625 62.897367 36.160156 62.835938L36.160156 61.714844L33.380859 61.714844L33.380859 63.894531L34.949219 63.894531L34.949219 64.910156L34.949219 65.007812C34.489219 64.987813 32.384062 64.894188 31.789062 64.867188L31.789062 59.099609L27.410156 59.099609L27.410156 58.246094L29.037109 58.246094L29.037109 56.042969L26.28125 56.042969L26.28125 56.880859L24.669922 56.880859L24.669922 55.119141L28.189453 55.119141L28.189453 45.980469L30.939453 45.980469L30.929688 34.050781L28.220703 34.050781L28.220703 29.697266L31.097656 29.697266L31.097656 27.5L28.220703 27.5L28.220703 24.890625L27.419922 24.890625L27.419922 20.900391L31.759766 20.900391L31.759766 15.136719C33.100766 15.064719 34.439297 14.991969 35.779297 14.917969L35.779297 20.558594L45.949219 20.115234L45.949219 14.054688C46.998219 13.909688 48.043844 13.765094 49.089844 13.621094 z M 22.660156 16.085938L22.660156 18.330078L25.46875 18.330078L25.46875 16.085938L22.660156 16.085938 z M 26.238281 16.091797L26.238281 18.320312L29.042969 18.320312L29.042969 16.091797L26.238281 16.091797 z M 12.021484 18.492188L12.021484 20.804688C12.964484 20.854688 13.885359 20.901172 14.818359 20.951172L14.818359 18.646484C13.876359 18.594484 12.957484 18.544187 12.021484 18.492188 z M 15.558594 18.755859L15.558594 21.019531L18.332031 21.019531L18.332031 18.755859L15.558594 18.755859 z M 19.107422 18.882812L19.107422 21.130859L21.910156 21.130859L21.910156 18.882812L19.107422 18.882812 z M 36.148438 21.417969C35.219437 21.461969 34.312 21.504781 33.375 21.550781L33.375 23.8125C34.312 23.7715 35.220438 23.730453 36.148438 23.689453L36.148438 21.417969 z M 15.554688 21.632812L15.554688 23.880859L18.337891 23.880859L18.337891 21.632812L15.554688 21.632812 z M 29.845703 21.654297L29.845703 23.861328L32.578125 23.861328L32.578125 21.654297L29.845703 21.654297 z M 48.0625 23.134766C47.8975 23.134766 47.726203 23.135625 47.533203 23.140625C46.851203 23.163625 42.595594 23.372375 40.308594 23.484375C39.526594 23.522375 38.984969 23.549734 38.917969 23.552734L37 23.632812L37 25.550781L37 36.369141L37 38.369141L39 38.369141C39.221 38.369141 44.916625 38.122516 45.140625 38.103516C52.010625 37.583516 55.429781 34.598375 55.300781 29.234375L55.296875 29.056641C55.264875 27.284641 55.1895 23.134766 48.0625 23.134766 z M 12.001953 24.375C12.001953 25.043 11.996719 25.746219 12.011719 26.449219C12.012719 26.511219 12.14575 26.623 12.21875 26.625C13.07575 26.637 13.9315 26.632813 14.8125 26.632812L14.8125 24.375L12.001953 24.375 z M 19.105469 24.597656L19.105469 26.841797L21.908203 26.841797L21.908203 24.597656L19.105469 24.597656 z M 48.0625 25.134766C53.4125 25.134766 53.262781 27.528297 53.300781 29.279297C53.380781 32.599297 51.990234 35.579375 44.990234 36.109375C44.750234 36.129375 39.08 36.369141 39 36.369141L39 25.550781C39.24 25.540781 46.699609 25.170625 47.599609 25.140625C47.757609 25.136625 47.9125 25.134766 48.0625 25.134766 z M 12.021484 27.265625L12.021484 29.556641L14.816406 29.556641L14.816406 27.265625L12.021484 27.265625 z M 19.113281 27.445312L19.113281 29.697266L21.900391 29.697266L21.900391 27.445312L19.113281 27.445312 z M 22.664062 27.478516L22.664062 29.716797L25.470703 29.716797L25.470703 27.478516L22.664062 27.478516 z M 15.570312 30.236328L15.570312 32.507812L18.330078 32.507812L18.330078 30.236328L15.570312 30.236328 z M 22.666016 30.333984L22.666016 32.566406L25.460938 32.566406L25.460938 30.333984L22.666016 30.333984 z M 32.3125 30.353516L32.3125 32.529297L35.060547 32.529297L35.060547 30.353516L32.3125 30.353516 z M 12.027344 33.054688L12.027344 35.34375L14.824219 35.34375L14.824219 33.054688L12.027344 33.054688 z M 15.560547 33.121094L15.560547 35.371094L18.345703 35.371094L18.345703 33.121094L15.560547 33.121094 z M 19.099609 33.160156L19.099609 35.400391L21.900391 35.400391L21.900391 33.160156L19.099609 33.160156 z M 19.101562 36.013672L19.101562 38.261719L21.910156 38.261719L21.910156 36.013672L19.101562 36.013672 z M 22.675781 36.03125L22.675781 38.263672L25.46875 38.263672L25.46875 36.03125L22.675781 36.03125 z M 22.667969 38.880859L22.667969 41.109375L25.472656 41.109375L25.472656 38.880859L22.667969 38.880859 z M 15.568359 38.884766L15.568359 41.140625L18.341797 41.140625L18.341797 38.884766L15.568359 38.884766 z M 31.972656 38.890625L31.972656 41.103516L34.714844 41.103516L34.714844 38.890625L31.972656 38.890625 z M 37 41.720703L37 43.720703L37 54.539062L37.015625 56.494141L38.96875 56.539062C39.08375 56.542063 39.677766 56.566609 40.509766 56.599609C40.543201 56.600961 40.556345 56.60021 40.589844 56.601562L40.589844 58.451172C41.054844 58.472172 42.874984 58.555172 43.333984 58.576172L43.333984 56.697266C45.043054 56.762163 47.009085 56.843394 47.669922 56.849609L47.669922 58.865234C47.903922 58.882234 49.733109 59.024172 50.412109 59.076172L50.412109 56.742188C50.319189 56.735695 50.227423 56.728953 50.134766 56.722656C53.477865 56.311615 55.515706 54.876705 56.171875 52.384766C56.468875 51.269766 56.719266 49.943359 56.322266 48.568359L56.244141 48.298828C55.080141 44.193828 53.633484 42.343094 44.646484 41.871094C43.834484 41.832094 39.251 41.720703 39 41.720703L37 41.720703 z M 22.677734 41.738281L22.677734 43.96875L25.480469 43.96875L25.480469 41.738281L22.677734 41.738281 z M 19.095703 41.746094L19.095703 43.986328L21.904297 43.986328L21.904297 41.746094L19.095703 41.746094 z M 39 43.720703C39.18 43.720703 43.720781 43.829141 44.550781 43.869141C53.300781 44.329141 53.510391 46.009141 54.400391 49.119141C54.660391 50.019141 54.480234 50.969141 54.240234 51.869141C54.070234 52.498141 53.602625 54.859375 48.015625 54.859375L47.980469 54.859375C46.610469 54.859375 39.21 54.539062 39 54.539062L39 43.720703 z M 19.095703 44.605469L19.095703 46.824219L21.914062 46.824219L21.914062 44.605469L19.095703 44.605469 z M 15.5625 44.636719L15.5625 46.871094L18.351562 46.871094L18.351562 44.636719L15.5625 44.636719 z M 12.03125 44.675781L12.03125 46.917969L14.828125 46.917969L14.828125 44.675781L12.03125 44.675781 z M 22.662109 47.431641L22.662109 49.664062L25.46875 49.664062L25.46875 47.431641L22.662109 47.431641 z M 29.117188 47.460938L29.117188 49.640625L31.884766 49.640625L31.884766 47.460938L29.117188 47.460938 z M 15.560547 47.517578L15.560547 49.742188L18.34375 49.742188L18.34375 47.517578L15.560547 47.517578 z M 12.021484 47.566406L12.021484 49.822266L14.818359 49.822266L14.818359 47.566406L12.021484 47.566406 z M 22.669922 50.283203L22.669922 52.509766L25.466797 52.509766L25.466797 50.283203L22.669922 50.283203 z M 29.111328 50.316406L29.111328 52.5L31.882812 52.5L31.882812 50.316406L29.111328 50.316406 z M 19.097656 50.318359L19.097656 52.544922L21.904297 52.544922L21.904297 50.318359L19.097656 50.318359 z M 15.574219 50.363281L15.574219 52.623047L18.339844 52.623047L18.339844 50.363281L15.574219 50.363281 z M 61.578125 52.054688L61.578125 54.667969C62.486125 54.772969 63.366578 54.875516 64.267578 54.978516L64.267578 52.310547C63.350578 52.223547 62.462125 52.138688 61.578125 52.054688 z M 15.564453 53.244141L15.564453 55.482422L18.341797 55.482422L18.341797 53.244141L15.564453 53.244141 z M 19.109375 56.03125L19.109375 58.251953L21.912109 58.251953L21.912109 56.03125L19.109375 56.03125 z M 15.558594 56.132812L15.558594 58.373047L18.341797 58.373047L18.341797 56.132812L15.558594 56.132812 z M 19.097656 58.886719L19.097656 61.113281L21.900391 61.113281L21.900391 58.886719L19.097656 58.886719 z M 14.824219 59.046875C13.864219 59.099875 12.944437 59.151172 12.023438 59.201172L12.023438 61.515625C12.969437 61.457625 13.887219 61.402703 14.824219 61.345703L14.824219 59.046875 z M 26.226562 61.673828L26.226562 63.912109L29.029297 63.912109L29.029297 61.673828L26.226562 61.673828 z M 22.671875 61.677734L22.671875 63.908203L25.474609 63.908203L25.474609 61.677734L22.671875 61.677734 z M 19.097656 61.746094L19.097656 63.966797L21.904297 63.966797L21.904297 61.746094L19.097656 61.746094 z M 18.341797 61.775391C17.399797 61.816391 16.479547 61.857438 15.560547 61.898438L15.560547 64.191406C16.502547 64.148406 17.422797 64.1055 18.341797 64.0625L18.341797 61.775391 z M 14.822266 61.931641C13.879266 61.990641 12.960484 62.049422 12.021484 62.107422L12.021484 64.423828C12.973484 64.358828 13.891266 64.293469 14.822266 64.230469L14.822266 61.933594L14.822266 61.931641 z M 40.417969 62.162109L40.417969 64.478516C41.381969 64.558516 42.309609 64.635937 43.224609 64.710938C43.249609 64.636938 43.267578 64.610937 43.267578 64.585938C43.270578 64.131938 43.272438 63.677609 43.273438 63.224609C43.275438 62.392609 43.273984 62.392406 42.458984 62.316406C42.378984 62.309406 42.29975 62.291156 42.21875 62.285156C41.62275 62.244156 41.026969 62.204109 40.417969 62.162109 z M 54.523438 63.628906L54.523438 63.630859L54.523438 66.105469L54.523438 66.107422C55.447437 66.255422 56.349063 66.401734 57.289062 66.552734L57.289062 64.033203C56.355063 63.897203 55.453437 63.764906 54.523438 63.628906 z M 58.003906 64.148438C58.003906 64.398438 58.003906 64.627609 58.003906 64.849609C58.003906 65.071609 58.002859 65.285047 58.005859 65.498047C58.011859 65.787047 57.945141 66.134531 57.994141 66.394531C58.010141 66.481531 58.040891 66.557141 58.087891 66.619141C58.260891 66.844141 58.774578 66.817719 59.142578 66.886719C59.687578 66.989719 60.235062 67.082687 60.789062 67.179688L60.789062 64.605469C59.865063 64.453469 58.967906 64.305437 58.003906 64.148438 z M 26.234375 64.525391L26.234375 66.759766L29.029297 66.759766L29.029297 64.525391L26.234375 64.525391 z M 19.109375 64.597656L19.109375 66.832031L21.916016 66.832031L21.916016 64.597656L19.109375 64.597656 z M 61.537109 64.738281L61.537109 67.326172L61.537109 67.328125C62.449109 67.513125 63.353391 67.694859 64.275391 67.880859L64.275391 65.236328C63.353391 65.067328 62.457109 64.905281 61.537109 64.738281 z M 40.427734 65.070312L40.427734 67.388672L40.427734 67.390625C41.367734 67.479625 42.288094 67.566203 43.246094 67.658203L43.246094 65.3125L43.246094 65.310547C42.289094 65.229547 41.361734 65.149313 40.427734 65.070312 z M 54.521484 66.736328L54.521484 69.214844C55.448484 69.383844 56.357828 69.54875 57.298828 69.71875L57.298828 67.197266C56.368828 67.043266 55.459484 66.891328 54.521484 66.736328 z M 26.228516 67.369141L26.228516 69.910156L29.033203 69.910156L29.033203 67.369141L26.228516 67.369141 z M 29.783203 67.453125L29.783203 69.996094L32.583984 69.996094L32.583984 67.453125L29.783203 67.453125 z M 33.302734 67.511719C33.302734 68.336719 33.293453 69.107906 33.314453 69.878906C33.315453 69.961906 33.484891 70.095422 33.587891 70.107422C34.000891 70.154422 34.418938 70.165547 34.835938 70.185547C35.272937 70.207547 35.707437 70.229 36.148438 70.25L36.148438 67.65625C35.181438 67.60725 34.263734 67.560719 33.302734 67.511719 z M 36.886719 67.703125L36.886719 70.308594C37.825719 70.385594 38.745891 70.461016 39.712891 70.541016L39.712891 68.826172C39.712891 67.948172 39.712125 67.942375 38.828125 67.859375C38.189125 67.798375 37.547719 67.755125 36.886719 67.703125 z M 43.976562 68.337891L43.976562 70.996094C44.916562 71.117094 45.833484 71.236422 46.771484 71.357422L46.771484 68.664062C45.834484 68.553062 44.917562 68.448891 43.976562 68.337891 z M 47.539062 68.767578L47.539062 71.46875L47.539062 71.470703C48.481063 71.615703 49.394125 71.754437 50.328125 71.898438L50.328125 69.160156C49.385125 69.027156 48.469062 68.898578 47.539062 68.767578 z M 54.501953 69.84375C54.501953 70.77175 54.497766 71.614078 54.509766 72.455078C54.510766 72.532078 54.601875 72.662734 54.671875 72.677734C55.538875 72.862734 56.410687 73.031984 57.304688 73.208984L57.304688 70.359375C56.380688 70.189375 55.470953 70.02275 54.501953 69.84375 z M 58.005859 70.515625C58.005859 71.433625 57.998719 72.287578 58.011719 73.142578C58.012719 73.232578 58.104687 73.384344 58.179688 73.402344C59.040687 73.609344 59.906406 73.797953 60.816406 74.001953C60.816406 73.065953 60.822688 72.158906 60.804688 71.253906C60.804688 71.174906 60.647922 71.057203 60.544922 71.033203C60.008922 70.906203 59.466781 70.800406 58.925781 70.691406C58.630781 70.632406 58.336859 70.578625 58.005859 70.515625 z" fill="#FFFF" />
</svg>