<svg xmlns="http://www.w3.org/2000/svg" xmlns:xlink="http://www.w3.org/1999/xlink" viewBox="0 0 64 64" fill="#FFFF">
  <path d="M44.222656 2.726563C43.496094 2.6875 42.757813 2.8125 42.050781 3.101563L37.75 4.890625L31.105469 5.625C30.199219 5.726563 29.308594 5.890625 28.433594 6.101563C28.421875 6.097656 28.417969 6.09375 28.410156 6.085938L22.015625 3.21875C20.132813 2.375 17.890625 2.785156 16.4375 4.242188L1.40625 19.269531C-0.148438 20.828125 -0.503906 23.261719 0.546875 25.195313L7.355469 37.710938L5.304688 39.859375C3.59375 41.660156 3.625 44.445313 5.386719 46.203125C6.242188 47.0625 7.386719 47.535156 8.597656 47.535156C8.71875 47.535156 8.835938 47.507813 8.957031 47.5L8.796875 47.671875C7.277344 49.289063 7.316406 51.792969 8.894531 53.371094C9.695313 54.171875 10.738281 54.574219 11.785156 54.574219C12.789063 54.574219 13.792969 54.203125 14.589844 53.457031L14.761719 53.296875C14.75 53.417969 14.722656 53.535156 14.722656 53.660156C14.722656 54.875 15.195313 56.015625 16.058594 56.875C16.949219 57.769531 18.113281 58.21875 19.273438 58.21875C20.394531 58.21875 21.515625 57.804688 22.398438 56.96875L22.484375 56.886719C22.59375 57.910156 23.042969 58.894531 23.796875 59.648438C24.691406 60.542969 25.867188 60.996094 27.042969 60.996094C28.117188 60.996094 29.195313 60.613281 30.0625 59.855469L31.1875 60.847656C32.058594 61.617188 33.148438 62 34.234375 62C35.421875 62 36.601563 61.546875 37.496094 60.652344C38.367188 59.78125 38.847656 58.625 38.847656 57.390625C38.847656 57.21875 38.835938 57.042969 38.816406 56.871094C40.503906 57.488281 42.457031 57.105469 43.78125 55.78125C44.742188 54.820313 45.199219 53.546875 45.160156 52.285156C46.980469 53.339844 49.328125 53.058594 50.855469 51.535156C52.042969 50.347656 52.464844 48.671875 52.113281 47.140625C53.65625 47.492188 55.332031 47.0625 56.515625 45.878906C58.359375 44.035156 58.457031 41.050781 56.726563 39.078125L55.449219 37.671875C57.121094 36.113281 58.527344 34.3125 59.617188 32.296875L63.460938 25.191406C64.507813 23.257813 64.152344 20.828125 62.597656 19.277344L47.507813 4.1875C46.609375 3.289063 45.4375 2.785156 44.222656 2.726563 Z M 44.125 4.722656C44.851563 4.757813 45.554688 5.0625 46.09375 5.601563L61.1875 20.6875C62.117188 21.621094 62.328125 23.082031 61.703125 24.238281L57.859375 31.34375C56.878906 33.160156 55.609375 34.78125 54.105469 36.1875L39.167969 19.761719C35.984375 16.582031 31.257813 15.652344 27.113281 17.402344L20.363281 20.246094C18.132813 21.1875 15.632813 21.054688 13.511719 19.875C13.214844 19.710938 13.03125 19.425781 13 19.085938C12.972656 18.75 13.105469 18.433594 13.371094 18.21875L21.519531 11.679688C24.339844 9.414063 27.730469 8.011719 31.324219 7.613281L38.109375 6.863281C38.160156 6.859375 38.199219 6.832031 38.246094 6.820313C38.292969 6.808594 38.339844 6.8125 38.386719 6.792969L42.820313 4.949219C43.242188 4.773438 43.6875 4.699219 44.125 4.722656 Z M 19.875 4.78125C20.324219 4.769531 20.777344 4.851563 21.199219 5.042969L25.59375 7.015625C23.6875 7.78125 21.890625 8.820313 20.269531 10.121094L12.121094 16.660156C11.339844 17.285156 10.925781 18.257813 11.011719 19.253906C11.09375 20.25 11.667969 21.136719 12.542969 21.625C15.203125 23.101563 18.335938 23.269531 21.144531 22.089844L27.890625 19.242188C31.28125 17.8125 35.152344 18.574219 37.71875 21.140625L55.238281 40.40625C56.261719 41.578125 56.203125 43.359375 55.097656 44.464844C54.128906 45.429688 52.585938 45.527344 51.507813 44.6875L47.734375 41.75C47.316406 41.425781 46.71875 41.484375 46.371094 41.878906C46.019531 42.273438 46.039063 42.875 46.410156 43.25L49.441406 46.277344C50.5 47.335938 50.5 49.058594 49.441406 50.121094C48.472656 51.085938 46.929688 51.183594 45.847656 50.34375L42.078125 47.40625C41.660156 47.082031 41.0625 47.140625 40.714844 47.535156C40.363281 47.929688 40.382813 48.53125 40.753906 48.90625L42.371094 50.515625C43.429688 51.578125 43.429688 53.300781 42.371094 54.359375C41.402344 55.328125 39.859375 55.425781 38.78125 54.585938L35.003906 51.652344C34.589844 51.328125 33.992188 51.382813 33.640625 51.777344C33.292969 52.171875 33.3125 52.773438 33.6875 53.144531L36.082031 55.542969C36.574219 56.035156 36.847656 56.691406 36.847656 57.390625C36.847656 58.085938 36.574219 58.742188 36.082031 59.234375C35.109375 60.207031 33.542969 60.257813 32.511719 59.34375L19.746094 48.082031L13.660156 42.71875C11.992188 41.242188 10.605469 39.503906 9.539063 37.546875L2.304688 24.238281C1.675781 23.082031 1.886719 21.617188 2.820313 20.6875L17.847656 5.65625C18.394531 5.109375 19.128906 4.808594 19.875 4.78125 Z M 44.5625 7.148438C44.308594 7.148438 44.054688 7.246094 43.859375 7.445313L42.441406 8.859375C42.050781 9.25 42.050781 9.878906 42.441406 10.269531C42.636719 10.464844 42.894531 10.5625 43.152344 10.5625C43.40625 10.5625 43.664063 10.464844 43.859375 10.269531L45.269531 8.859375C45.664063 8.464844 45.664063 7.835938 45.269531 7.445313C45.074219 7.246094 44.820313 7.148438 44.5625 7.148438 Z M 48.101563 10.6875C47.84375 10.6875 47.589844 10.785156 47.394531 10.980469L45.980469 12.390625C45.589844 12.785156 45.589844 13.414063 45.980469 13.808594C46.175781 14 46.429688 14.097656 46.6875 14.097656C46.945313 14.097656 47.199219 14 47.394531 13.808594L48.808594 12.390625C49.199219 12 49.199219 11.371094 48.808594 10.980469C48.613281 10.78125 48.359375 10.683594 48.101563 10.6875 Z M 51.636719 14.222656C51.382813 14.222656 51.125 14.320313 50.929688 14.515625L49.515625 15.929688C49.121094 16.320313 49.121094 16.953125 49.515625 17.34375C49.707031 17.539063 49.964844 17.636719 50.21875 17.636719C50.476563 17.636719 50.734375 17.539063 50.925781 17.34375L52.34375 15.929688C52.734375 15.539063 52.734375 14.90625 52.34375 14.515625C52.148438 14.320313 51.890625 14.222656 51.636719 14.222656 Z M 55.171875 17.757813C54.917969 17.757813 54.660156 17.855469 54.464844 18.050781L53.050781 19.464844C52.660156 19.855469 52.660156 20.488281 53.050781 20.878906C53.246094 21.074219 53.5 21.171875 53.757813 21.171875C54.015625 21.171875 54.269531 21.074219 54.464844 20.878906L55.878906 19.464844C56.269531 19.074219 56.269531 18.441406 55.878906 18.050781C55.683594 17.855469 55.425781 17.757813 55.171875 17.757813 Z M 58.707031 21.292969C58.453125 21.292969 58.195313 21.390625 58 21.585938L56.585938 23C56.195313 23.390625 56.195313 24.023438 56.585938 24.414063C56.78125 24.609375 57.035156 24.707031 57.292969 24.707031C57.550781 24.707031 57.804688 24.609375 58 24.414063L59.414063 23C59.804688 22.609375 59.804688 21.976563 59.414063 21.585938C59.21875 21.390625 58.960938 21.292969 58.707031 21.292969 Z M 41.761719 32.457031C41.503906 32.457031 41.25 32.554688 41.054688 32.75C40.664063 33.144531 40.664063 33.773438 41.054688 34.164063L42.46875 35.578125C42.664063 35.773438 42.921875 35.871094 43.175781 35.871094C43.433594 35.871094 43.691406 35.773438 43.886719 35.578125C44.277344 35.1875 44.277344 34.554688 43.886719 34.164063L42.46875 32.75C42.273438 32.554688 42.019531 32.457031 41.761719 32.457031 Z M 38.226563 35.996094C37.96875 35.996094 37.714844 36.089844 37.519531 36.285156C37.128906 36.679688 37.128906 37.3125 37.519531 37.703125L38.9375 39.113281C39.128906 39.308594 39.386719 39.40625 39.640625 39.40625C39.898438 39.40625 40.15625 39.308594 40.347656 39.113281C40.742188 38.722656 40.742188 38.089844 40.347656 37.703125L38.933594 36.285156C38.738281 36.089844 38.484375 35.996094 38.226563 35.996094 Z M 8.398438 39.519531C9.308594 40.992188 10.398438 42.339844 11.640625 43.546875L10.394531 44.792969C9.433594 45.75 7.765625 45.753906 6.796875 44.789063C5.816406 43.804688 5.796875 42.246094 6.757813 41.238281 Z M 34.691406 39.53125C34.4375 39.53125 34.179688 39.625 33.984375 39.824219C33.59375 40.210938 33.59375 40.84375 33.984375 41.234375L35.398438 42.652344C35.59375 42.84375 35.847656 42.941406 36.105469 42.941406C36.363281 42.941406 36.617188 42.84375 36.8125 42.652344C37.203125 42.261719 37.203125 41.628906 36.8125 41.234375L35.398438 39.824219C35.203125 39.625 34.945313 39.53125 34.691406 39.53125 Z M 31.15625 43.0625C30.902344 43.0625 30.644531 43.160156 30.449219 43.359375C30.058594 43.75 30.058594 44.378906 30.449219 44.769531L31.863281 46.1875C32.058594 46.378906 32.3125 46.480469 32.570313 46.480469C32.828125 46.480469 33.082031 46.378906 33.277344 46.1875C33.667969 45.792969 33.667969 45.164063 33.277344 44.769531L31.863281 43.359375C31.667969 43.160156 31.410156 43.0625 31.15625 43.0625 Z M 13.679688 45.398438L17.0625 48.386719L13.21875 52C12.390625 52.777344 11.113281 52.757813 10.300781 51.949219C9.496094 51.144531 9.476563 49.867188 10.253906 49.039063 Z M 27.621094 46.597656C27.363281 46.597656 27.109375 46.695313 26.910156 46.890625C26.519531 47.285156 26.519531 47.914063 26.910156 48.308594L28.328125 49.71875C28.519531 49.914063 28.777344 50.015625 29.03125 50.015625C29.289063 50.015625 29.546875 49.914063 29.738281 49.71875C30.132813 49.328125 30.132813 48.699219 29.738281 48.308594L28.328125 46.890625C28.128906 46.695313 27.875 46.597656 27.621094 46.597656 Z M 19.125 50.203125L23.011719 53.632813L21.023438 55.511719C20.015625 56.464844 18.453125 56.445313 17.46875 55.464844C16.988281 54.980469 16.722656 54.339844 16.722656 53.65625C16.722656 52.976563 16.988281 52.339844 17.46875 51.859375 Z M 24.628906 55.0625L28.53125 58.503906C27.515625 59.226563 26.113281 59.136719 25.207031 58.230469C24.507813 57.53125 24.265625 56.472656 24.59375 55.535156C24.652344 55.375 24.652344 55.214844 24.628906 55.0625Z" fill="#FFFF" />
</svg>