<svg xmlns="http://www.w3.org/2000/svg" xmlns:xlink="http://www.w3.org/1999/xlink" viewBox="0 0 128 128" fill="#FFFF">
  <path d="M73.589844 7.7871094C72.763281 7.8308594 71.924609 8.0007813 71.099609 8.3007812C67.999609 9.5007812 65.9 12.6 66 16L66.5 33.400391C66.5 35.000391 67.9 36.300781 69.5 36.300781L69.599609 36.300781C71.299609 36.300781 72.6 34.899219 72.5 33.199219L72.5 32.199219L80 29.5L78.5 18L87.099609 28C88.099609 29.3 90.000781 29.500391 91.300781 28.400391C92.600781 27.300391 92.699609 25.399219 91.599609 24.199219L80.099609 10.599609C78.449609 8.6496094 76.069531 7.6558594 73.589844 7.7871094 z M 97.886719 31.175781C96.724219 31.125781 95.550391 31.299219 94.400391 31.699219L16.400391 60.099609C11.700391 61.799609 9.3 66.999609 11 71.599609C11.8 73.899609 13.499219 75.699219 15.699219 76.699219C16.899219 77.299219 18.2 77.5 19.5 77.5C20.5 77.5 21.599609 77.3 22.599609 77L47.900391 67.800781L45.599609 80.900391L38.5 121L10 121C8.3 121 7 122.3 7 124C7 125.7 8.3 127 10 127L81 127L108 127C109.7 127 111 125.7 111 124C111 122.3 109.7 121 108 121L83.599609 121L72.599609 58.800781L100.59961 48.599609C105.29961 46.899609 107.7 41.699609 106 37.099609C105.2 34.799609 103.50078 33 101.30078 32C100.20078 31.5 99.049219 31.225781 97.886719 31.175781 z M 97.599609 37.099609C98.799609 37.099609 100.00039 37.899609 100.40039 39.099609C101.00039 40.699609 100.19961 42.400391 98.599609 42.900391L20.599609 71.300781C18.999609 71.900781 17.300781 71.1 16.800781 69.5C16.200781 67.9 16.999609 66.199219 18.599609 65.699219L96.599609 37.300781C96.899609 37.200781 97.299609 37.099609 97.599609 37.099609 z M 100.30078 53.199219C98.700781 53.199219 97.300781 54.499219 97.300781 56.199219L97.199219 69.400391L90.900391 59.599609L83.400391 62.300781L82.800781 61.5C81.800781 60.2 79.899609 60 78.599609 61C77.299609 62 77.099609 63.899219 78.099609 65.199219L88.900391 78.800781C90.500391 80.800781 92.699609 81.800781 95.099609 81.800781C95.999609 81.800781 96.900781 81.700781 97.800781 81.300781C101.10078 80.400781 103.19922 77.4 103.19922 74L103.30078 56.199219C103.30078 54.499219 102.00078 53.199219 100.30078 53.199219 z M 66.900391 60.900391L70.400391 80.5L58.900391 91.900391L47.800781 103L50.5 87.699219L52.699219 89.900391C53.299219 90.500391 54.100781 90.800781 54.800781 90.800781C55.500781 90.800781 56.300391 90.500391 56.900391 89.900391C58.100391 88.700391 58.100391 86.799219 56.900391 85.699219L51.699219 80.5L54.400391 65.400391L66.900391 60.900391 z M 25.300781 82.199219C23.600781 82.199219 22.300781 83.499219 22.300781 85.199219L22.300781 114C22.300781 115.7 23.600781 117 25.300781 117C27.000781 117 28.300781 115.7 28.300781 114L28.300781 85.199219C28.300781 83.499219 27.000781 82.199219 25.300781 82.199219 z M 71.599609 87.699219L74.300781 103L65.300781 94L71.599609 87.699219 z M 95.300781 92.199219C93.600781 92.199219 92.300781 93.499219 92.300781 95.199219L92.300781 114C92.300781 115.7 93.600781 117 95.300781 117C97.000781 117 98.300781 115.7 98.300781 114L98.300781 95.199219C98.300781 93.499219 96.900781 92.199219 95.300781 92.199219 z M 61 98.199219L76.099609 113.30078L77.5 121L44.599609 121L46 113.30078L61 98.199219 z M 122.75391 120.8418C122.01797 120.87461 121.32578 121.17422 120.80078 121.69922L120.40039 122.09961C120.30039 122.29961 120.19961 122.39961 120.09961 122.59961C119.99961 122.79961 120.00039 122.99922 119.90039 123.19922C119.90039 123.39922 119.80078 123.60078 119.80078 123.80078C119.80078 124.60078 120.09922 125.40039 120.69922 125.90039C121.39922 126.70039 122.2 127 123 127C123.2 127 123.39961 127.00039 123.59961 126.90039C123.79961 126.90039 123.99922 126.79922 124.19922 126.69922C124.39922 126.59922 124.59922 126.50039 124.69922 126.40039C124.89922 126.30039 124.99961 126.2 125.09961 126C125.69961 125.4 126 124.70039 126 123.90039C126 123.70039 126.00039 123.50078 125.90039 123.30078C125.90039 123.10078 125.79922 122.89922 125.69922 122.69922C125.59922 122.49922 125.50039 122.39922 125.40039 122.19922C125.30039 121.99922 125.2 121.90078 125 121.80078L124.59961 121.40039C124.39961 121.30039 124.29961 121.19961 124.09961 121.09961C123.89961 120.99961 123.7 121.00039 123.5 120.90039C123.25 120.85039 122.99922 120.83086 122.75391 120.8418 z" fill="#FFFF" />
</svg>