<svg xmlns="http://www.w3.org/2000/svg" xmlns:xlink="http://www.w3.org/1999/xlink" viewBox="0 0 50 50" fill="#FFFF">
  <path d="M6 0C2.699219 0 0 2.699219 0 6C0 9.300781 2.699219 12 6 12C7.292969 12 8.488281 11.578125 9.46875 10.875L17.25 18.6875C15.839844 20.410156 15 22.605469 15 25C15 26.980469 15.597656 28.820313 16.59375 30.375L10.03125 35.5625C8.964844 34.59375 7.546875 34 6 34C2.699219 34 0 36.699219 0 40C0 43.300781 2.699219 46 6 46C9.300781 46 12 43.300781 12 40C12 38.953125 11.726563 37.984375 11.25 37.125L17.84375 31.9375C19.664063 33.8125 22.1875 35 25 35C26.328125 35 27.589844 34.753906 28.75 34.28125L31.375 39.25C29.941406 40.347656 29 42.0625 29 44C29 47.300781 31.699219 50 35 50C38.300781 50 41 47.300781 41 44C41 40.699219 38.300781 38 35 38C34.347656 38 33.714844 38.117188 33.125 38.3125L30.5 33.34375C32.386719 32.097656 33.828125 30.226563 34.53125 28.03125L38 28.75C37.996094 28.832031 38 28.917969 38 29C38 32.300781 40.699219 35 44 35C47.300781 35 50 32.300781 50 29C50 25.699219 47.300781 23 44 23C41.464844 23 39.28125 24.578125 38.40625 26.8125L34.9375 26.0625C34.972656 25.714844 35 25.355469 35 25C35 21.066406 32.691406 17.660156 29.375 16.03125L30.90625 11.90625C31.257813 11.96875 31.632813 12 32 12C35.300781 12 38 9.300781 38 6C38 2.699219 35.300781 0 32 0C28.699219 0 26 2.699219 26 6C26 8.214844 27.234375 10.148438 29.03125 11.1875L27.5 15.34375C26.695313 15.132813 25.867188 15 25 15C22.605469 15 20.410156 15.839844 18.6875 17.25L10.875 9.46875C11.578125 8.488281 12 7.292969 12 6C12 2.699219 9.300781 0 6 0 Z M 6 2C8.222656 2 10 3.777344 10 6C10 8.222656 8.222656 10 6 10C3.777344 10 2 8.222656 2 6C2 3.777344 3.777344 2 6 2 Z M 32 2C34.222656 2 36 3.777344 36 6C36 8.222656 34.222656 10 32 10C29.777344 10 28 8.222656 28 6C28 3.777344 29.777344 2 32 2 Z M 25 17C29.433594 17 33 20.574219 33 25C33 29.433594 29.433594 33 25 33C20.570313 33 17 29.433594 17 25C17 22.847656 17.84375 20.90625 19.21875 19.46875C19.300781 19.40625 19.375 19.332031 19.4375 19.25C20.875 17.859375 22.832031 17 25 17 Z M 44 25C46.222656 25 48 26.777344 48 29C48 31.222656 46.222656 33 44 33C41.777344 33 40 31.222656 40 29C40 26.777344 41.777344 25 44 25 Z M 6 36C8.222656 36 10 37.777344 10 40C10 42.222656 8.222656 44 6 44C3.777344 44 2 42.222656 2 40C2 37.777344 3.777344 36 6 36 Z M 35 40C37.222656 40 39 41.777344 39 44C39 46.222656 37.222656 48 35 48C32.777344 48 31 46.222656 31 44C31 42.484375 31.828125 41.179688 33.0625 40.5C33.09375 40.492188 33.125 40.480469 33.15625 40.46875C33.167969 40.460938 33.175781 40.445313 33.1875 40.4375C33.207031 40.429688 33.230469 40.417969 33.25 40.40625C33.777344 40.152344 34.371094 40 35 40Z" fill="#FFFF" />
</svg>